# File created by Blade
# Date/Time:  Fri Jan 16 19:00:24 2015
# Frame Rate: 120.000 fps
#------------------------------------------------------
:FULLY-SPECIFIED
:DEGREES
1949
root 17.666199 36.163816 -20.572794 -183.956240 3.264066 -171.695018
Spine 11.603655 -1.623276 0.978831
Head -4.314432 1.211865 11.497471
LeftShoulder -9.908206 -30.618723 14.645009
LeftArm 0.506453 -5.805809 -13.895314
LeftForeArm -2.171799 -0.000000 3.642182
LeftHand -4.691274 -0.000000 -0.123336
LeftHandThumb1 -26.253704 0.000000 33.147579
RightShoulder -13.056722 -3.070989 2.169054
RightArm -12.145516 55.437209 23.487497
RightForeArm -27.821320 -0.000000 34.725187
RightHand -12.996751 -0.000000 -0.815827
RightHandThumb1 -24.326973 -0.000000 -32.862282
LeftUpLeg 5.411114 13.345560 -0.237013
LeftLeg -2.135821 -0.000000 0.000000
LeftFoot -17.974911 23.877274 -9.743304
LeftToeBase 24.126055 -0.000000 -0.000000
RightUpLeg -80.392644 2.733049 10.235948
RightLeg 105.618527 -0.000000 -0.000000
RightFoot 27.550112 -38.947585 -15.412524
RightToeBase 21.658189 -0.000000 -0.000000
1950
root 17.712261 36.164431 -20.575920 -184.029978 3.419127 -171.666816
Spine 11.672995 -1.448782 0.888751
Head -4.324802 1.222370 11.626981
LeftShoulder -9.839846 -30.607947 14.671583
LeftArm 0.575961 -5.804909 -13.892781
LeftForeArm -2.153410 -0.000000 3.570282
LeftHand -4.719636 -0.000000 -0.096843
LeftHandThumb1 -26.253704 0.000000 33.147579
RightShoulder -13.067410 -3.069127 2.228139
RightArm -12.054132 55.341863 23.534600
RightForeArm -27.769860 -0.000000 34.721570
RightHand -13.038899 -0.000000 -0.954136
RightHandThumb1 -24.326973 -0.000000 -32.862282
LeftUpLeg 5.507605 13.113331 -0.151960
LeftLeg -2.115900 -0.000000 0.000000
LeftFoot -17.919315 24.291030 -9.523431
LeftToeBase 23.770733 -0.000000 -0.000000
RightUpLeg -80.538377 3.771708 10.393248
RightLeg 105.677280 -0.000000 -0.000000
RightFoot 27.562411 -39.050069 -15.247209
RightToeBase 21.509408 -0.000000 -0.000000
1951
root 17.758896 36.165636 -20.580786 -184.105936 3.611046 -171.613823
Spine 11.744690 -1.292971 0.828516
Head -4.319437 1.278803 11.732802
LeftShoulder -9.799379 -30.686181 14.733757
LeftArm 0.548532 -5.827932 -13.886117
LeftForeArm -2.082110 0.000000 3.540568
LeftHand -4.696911 -0.000000 -0.108089
LeftHandThumb1 -26.253704 0.000000 33.147579
RightShoulder -13.044838 -3.068065 2.288235
RightArm -11.952045 55.283289 23.580164
RightForeArm -27.775023 -0.000000 34.754371
RightHand -13.059741 0.000000 -0.927511
RightHandThumb1 -24.326973 -0.000000 -32.862282
LeftUpLeg 5.618262 12.946984 -0.037507
LeftLeg -2.109086 -0.000000 0.000000
LeftFoot -17.921896 24.646168 -9.388425
LeftToeBase 23.449998 -0.000000 -0.000000
RightUpLeg -80.638171 4.814577 10.587731
RightLeg 105.740649 -0.000000 -0.000000
RightFoot 27.694545 -38.944337 -15.457967
RightToeBase 21.485135 -0.000000 -0.000000
1952
root 17.804456 36.167005 -20.590620 -184.189290 3.740176 -171.566854
Spine 11.820972 -1.238269 0.746782
Head -4.320188 1.378776 11.857206
LeftShoulder -9.809038 -30.822214 14.847042
LeftArm 0.469548 -5.800750 -13.879824
LeftForeArm -2.011724 0.000000 3.552107
LeftHand -4.745135 0.000000 -0.117214
LeftHandThumb1 -26.253704 0.000000 33.147579
RightShoulder -13.011832 -3.051333 2.359999
RightArm -11.852232 55.210428 23.627932
RightForeArm -27.889256 -0.000000 34.834031
RightHand -13.018844 -0.000000 -0.797686
RightHandThumb1 -24.326973 -0.000000 -32.862282
LeftUpLeg 5.736395 12.724453 0.064749
LeftLeg -2.105099 -0.000000 0.000000
LeftFoot -17.937282 25.014402 -9.298116
LeftToeBase 23.205335 -0.000000 -0.000000
RightUpLeg -80.740023 5.809804 10.752912
RightLeg 105.831661 -0.000000 -0.000000
RightFoot 27.744816 -38.830973 -15.469375
RightToeBase 22.034164 -0.000000 -0.000000
